<svg xmlns="http://www.w3.org/2000/svg" xmlns:xlink="http://www.w3.org/1999/xlink" width="500" zoomAndPan="magnify" viewBox="0 0 375 374.999991" height="500" preserveAspectRatio="xMidYMid meet" version="1.0"><defs><clipPath id="1b32b2c283"><path d="M 187.5 0 C 83.945312 0 0 83.945312 0 187.5 C 0 291.054688 83.945312 375 187.5 375 C 291.054688 375 375 291.054688 375 187.5 C 375 83.945312 291.054688 0 187.5 0 Z M 187.5 0 " clip-rule="nonzero"/></clipPath></defs><path stroke-linecap="round" transform="matrix(0.75, 0, 0, 0.75, 22.388757, 180.749988)" fill="none" stroke-linejoin="miter" d="M 9.002491 9.000016 L 431.294185 9.000016 " stroke="#d5b072" stroke-width="18" stroke-opacity="1" stroke-miterlimit="4"/><path stroke-linecap="butt" transform="matrix(0.75, 0, 0, 0.75, 127.499996, 185.999988)" fill="none" stroke-linejoin="miter" d="M 0.00000516333 2.000016 L 160.000016 2.000016 " stroke="#d5b072" stroke-width="4" stroke-opacity="1" stroke-miterlimit="4"/><g clip-path="url(#1b32b2c283)"><path stroke-linecap="butt" transform="matrix(0.75, 0, 0, 0.75, 0.0000045, 0.000000000000021316)" fill="none" stroke-linejoin="miter" d="M 249.999994 -0.000000000000028422 C 111.927078 -0.000000000000028422 -0.000006 111.927084 -0.000006 250 C -0.000006 388.072917 111.927078 500.000001 249.999994 500.000001 C 388.072911 500.000001 499.999995 388.072917 499.999995 250 C 499.999995 111.927084 388.072911 -0.000000000000028422 249.999994 -0.000000000000028422 Z M 249.999994 -0.000000000000028422 " stroke="#d5b072" stroke-width="40" stroke-opacity="1" stroke-miterlimit="4"/></g><path stroke-linecap="round" transform="matrix(0.75, 0, 0, 0.75, 66.316546, 79.742361)" fill="none" stroke-linejoin="miter" d="M 8.999815 99.374775 L 8.999815 32.999771 C 8.999815 19.744561 19.744607 8.999769 32.999816 8.999769 L 290.156083 8.999769 C 303.411292 8.999769 314.156085 19.744561 314.156085 32.999771 L 314.156085 99.379983 " stroke="#d5b072" stroke-width="18" stroke-opacity="1" stroke-miterlimit="4"/><path stroke-linecap="butt" transform="matrix(0, -0.75, 0.75, 0, 180.744792, 69.199433)" fill="none" stroke-linejoin="miter" d="M 0.000285741 9.001736 L 60.797165 9.001736 " stroke="#d5b072" stroke-width="18" stroke-opacity="1" stroke-miterlimit="4"/><path stroke-linecap="butt" transform="matrix(0, -0.75, 0.75, 0, 180.745994, 170.578964)" fill="none" stroke-linejoin="miter" d="M 0.00111866 9.000133 L 91.245916 9.000133 " stroke="#d5b072" stroke-width="18" stroke-opacity="1" stroke-miterlimit="4"/><path stroke-linecap="round" transform="matrix(-0.75, 0, 0, -0.75, 308.672005, 295.580753)" fill="none" stroke-linejoin="miter" d="M 9.000174 99.37851 L 9.000174 32.998297 C 9.000174 19.743088 19.744966 8.998296 33.000176 8.998296 L 290.156442 8.998296 C 303.411652 8.998296 314.156444 19.743088 314.156444 32.998297 L 314.156444 99.37851 " stroke="#d5b072" stroke-width="18" stroke-opacity="1" stroke-miterlimit="4"/><path stroke-linecap="butt" transform="matrix(0, 0.75, -0.75, 0, 194.243766, 306.123671)" fill="none" stroke-linejoin="miter" d="M 0.00177187 9.002105 L 60.793443 9.002105 " stroke="#d5b072" stroke-width="18" stroke-opacity="1" stroke-miterlimit="4"/><path stroke-linecap="butt" transform="matrix(0, 0.75, -0.75, 0, 194.242549, 204.744157)" fill="none" stroke-linejoin="miter" d="M 0.00258239 9.000483 L 91.24738 9.000483 " stroke="#d5b072" stroke-width="18" stroke-opacity="1" stroke-miterlimit="4"/></svg>