<svg width="467" height="467" viewBox="0 0 467 467" fill="none" xmlns="http://www.w3.org/2000/svg">
<path d="M233.47 466.93C104.74 466.93 0 362.2 0 233.46C0 104.72 104.74 0 233.47 0C362.2 0 466.93 104.73 466.93 233.47C466.93 362.21 362.2 466.93 233.47 466.93ZM233.47 21.68C116.69 21.68 21.6899 116.69 21.6899 233.46C21.6899 350.23 116.7 445.24 233.47 445.24C350.24 445.24 445.25 350.23 445.25 233.46C445.25 116.69 350.25 21.68 233.47 21.68Z" fill="#D5B072"/>
<path d="M339.8 350.29H127.14C104.03 350.29 85.2305 331.49 85.2305 308.38C85.2305 302.39 90.0804 297.54 96.0704 297.54C102.06 297.54 106.91 302.39 106.91 308.38C106.91 319.53 115.98 328.6 127.13 328.6H339.781C350.931 328.6 360 319.53 360 308.38C360 302.39 364.85 297.54 370.84 297.54C376.83 297.54 381.68 302.39 381.68 308.38C381.7 331.49 362.9 350.29 339.8 350.29Z" fill="#D5B072"/>
<path d="M370.858 169.39C364.868 169.39 360.018 164.54 360.018 158.55C360.018 147.4 350.948 138.33 339.798 138.33H127.138C115.988 138.33 106.918 147.4 106.918 158.55C106.918 164.54 102.068 169.39 96.0782 169.39C90.0882 169.39 85.2383 164.54 85.2383 158.55C85.2383 135.44 104.038 116.64 127.148 116.64H339.798C362.908 116.64 381.708 135.44 381.708 158.55C381.698 164.54 376.848 169.39 370.858 169.39Z" fill="#D5B072"/>
<path d="M244.309 263.56H222.629V331.82H244.309V263.56Z" fill="#D5B072"/>
<path d="M244.309 154.36H222.629V229.06H244.309V154.36Z" fill="#D5B072"/>
<path d="M244.309 80.3801C244.309 74.3901 239.459 69.54 233.469 69.54C227.479 69.54 222.629 74.3901 222.629 80.3801V119.85H244.309V80.3801Z" fill="#D5B072"/>
<path d="M222.629 392.98C222.629 398.97 227.479 403.82 233.469 403.82C239.459 403.82 244.309 398.97 244.309 392.98V366.33H222.629V392.98Z" fill="#D5B072"/>
<path d="M389.768 247.52H77.1682C71.1782 247.52 66.3281 242.67 66.3281 236.68C66.3281 230.69 71.1782 225.84 77.1682 225.84H389.768C395.758 225.84 400.608 230.69 400.608 236.68C400.608 242.67 395.758 247.52 389.768 247.52Z" fill="#D5B072"/>
</svg>
